<svg version="1.1" xmlns="http://www.w3.org/2000/svg" xmlns:xlink="http://www.w3.org/1999/xlink" width="199.96407" height="199.96407" viewBox="0,0,199.96407,199.96407"><g transform="translate(-140.01796,-80.01796)"><g data-paper-data="{&quot;isPaintingLayer&quot;:true}" fill-rule="nonzero" stroke-linejoin="miter" stroke-miterlimit="10" stroke-dasharray="" stroke-dashoffset="0" style="mix-blend-mode: normal"><path d="M140.01797,279.98204v-199.96407h199.96407v199.96407z" fill="#ffffff" stroke="#000000" stroke-width="0" stroke-linecap="butt"/><path d="M290.46824,252.47015c-10.1578,20.31878 -33.22247,19.62505 -50.70509,19.62505c-16.93104,0 -38.3161,2.74692 -48.48208,-16.47844c-8.21269,-15.53138 -6.94028,-50.59415 -6.94028,-72.57099c0,-28.90166 7.94655,-61.43744 21.22545,-77.70596c9.3172,-11.41488 22.19846,-17.5707 34.81964,-17.5707c13.28156,0 24.84923,6.26101 34.39476,18.77753c12.45327,16.32929 20.40489,48.65852 20.40489,76.49914c0,21.09059 2.9094,54.16861 -4.71728,69.42438z" data-paper-data="{&quot;index&quot;:null}" fill="#737373" stroke="#000000" stroke-width="2" stroke-linecap="butt"/><path d="M239.65001,89.03683v26.7771" fill="none" stroke="#000000" stroke-width="2" stroke-linecap="round"/><path d="M255.87944,162.82954c0,10.9481 -15.87944,47.63833 -15.87944,47.63833c0,0 -15.87944,-34.41831 -15.87944,-47.63833c0,-26.30992 7.10947,-47.63833 15.87944,-47.63833c8.76997,0 15.87944,21.32841 15.87944,47.63833z" fill="#545454" stroke="#000000" stroke-width="2" stroke-linecap="butt"/><path d="M246.84995,148.81827c0,6.87841 -3.06683,12.45447 -6.84996,12.45447c-3.78312,0 -6.84996,-5.57606 -6.84996,-12.45447c0,-6.87841 3.06683,-12.45447 6.84996,-12.45447c3.78312,0 6.84996,5.57606 6.84996,12.45447z" fill="#2b2b2b" stroke="#000000" stroke-width="2" stroke-linecap="butt"/><path d="M226.11779,260.78776v-43.32961h12.25259c4.41837,0 8.26122,0.76114 11.52857,2.28344c3.26735,1.48516 5.77356,3.80574 7.51863,6.9617c1.78219,3.15596 2.67329,7.2216 2.67329,12.1969c0,4.9753 -0.8911,9.07805 -2.67329,12.30828c-1.74507,3.23023 -4.21414,5.64362 -7.40724,7.24017c-3.15596,1.55942 -6.85032,2.33913 -11.08303,2.33913zM235.86417,252.87927h1.89358c2.48764,0 4.64114,-0.44556 6.46046,-1.33665c1.85647,-0.8911 3.28592,-2.3577 4.2884,-4.3998c1.03961,-2.04209 1.55942,-4.78965 1.55942,-8.24265c0,-3.453 -0.51981,-6.16341 -1.55942,-8.13126c-1.00248,-1.96785 -2.43195,-3.36018 -4.2884,-4.17702c-1.81932,-0.81683 -3.97281,-1.22525 -6.46046,-1.22525h-1.89358z" fill="#ffd200" stroke="none" stroke-width="1" stroke-linecap="square"/></g></g></svg>